<!DOCTYPE svg PUBLIC "-//W3C//DTD SVG 1.1//EN" "http://www.w3.org/Graphics/SVG/1.1/DTD/svg11.dtd">

<!-- Uploaded to: SVG Repo, www.svgrepo.com, Transformed by: SVG Repo Mixer Tools -->
<svg width="64px" height="64px" viewBox="0 0 1024 1024" xmlns="http://www.w3.org/2000/svg" fill="#000000" stroke="#000000" stroke-width="0.01024">

<g id="SVGRepo_bgCarrier" stroke-width="0"/>

<g id="SVGRepo_tracerCarrier" stroke-linecap="round" stroke-linejoin="round"/>

<g id="SVGRepo_iconCarrier">

<path fill="#ffffff" d="M704 320v96a32 32 0 0 1-32 32h-32V320H384v128h-32a32 32 0 0 1-32-32v-96H192v576h640V320H704zm-384-64a192 192 0 1 1 384 0h160a32 32 0 0 1 32 32v640a32 32 0 0 1-32 32H160a32 32 0 0 1-32-32V288a32 32 0 0 1 32-32h160zm64 0h256a128 128 0 1 0-256 0z"/>

<path fill="#ffffff" d="M192 704h640v64H192z"/>

</g>

</svg>