<!DOCTYPE svg PUBLIC "-//W3C//DTD SVG 1.1//EN" "http://www.w3.org/Graphics/SVG/1.1/DTD/svg11.dtd">

<!-- Uploaded to: SVG Repo, www.svgrepo.com, Transformed by: SVG Repo Mixer Tools -->
<svg fill="#000000" width="800px" height="800px" viewBox="0 0 24 24" id="processor" data-name="Flat Line" xmlns="http://www.w3.org/2000/svg" class="icon flat-line">

<g id="SVGRepo_bgCarrier" stroke-width="0"/>

<g id="SVGRepo_tracerCarrier" stroke-linecap="round" stroke-linejoin="round"/>

<g id="SVGRepo_iconCarrier">

<path id="secondary" d="M17,6H7A1,1,0,0,0,6,7V17a1,1,0,0,0,1,1H17a1,1,0,0,0,1-1V7A1,1,0,0,0,17,6Zm-3,8H10V10h4Z" style="fill: #265779; stroke-width: 2;"/>

<path id="primary" d="M12,6V3m4,3V4M8,6V4m10,8h3m-3,4h2M18,8h2M12,18v3M8,18v2m8-2v2M6,12H3M6,8H4m2,8H4m14,1V7a1,1,0,0,0-1-1H7A1,1,0,0,0,6,7V17a1,1,0,0,0,1,1H17A1,1,0,0,0,18,17Zm-4-7H10v4h4Z" style="fill: none; stroke: #000000; stroke-linecap: round; stroke-linejoin: round; stroke-width: 2;"/>

</g>

</svg>